# xmcd
#
# Track frame offsets: 
#        150
#        27438
#        58262
#        76864
#        91612
#        113851
#        131443
#        158147
#        171172
#        189230
#        209836
#        231536
#        249382
#        273639
#
# Disc length: 4000 seconds
#
# Revision: 4
# Processed by: cddbd v1.5.2PL0 Copyright (c) Steve Scherf et al.
# Submitted via: ExactAudioCopyFreeDBPlugin 1.0
#
DISCID=c10f9e0e
DTITLE=Various Artist - Where Blues Meets Rock Vol. 6
DYEAR=2005
DGENRE=Blues-Rock
TTITLE0=Walter Trout - Put It Right Back
TTITLE1=Joe Bonamassa - Reconsider Baby
TTITLE2=Leslie West - Baby Please Don't Go
TTITLE3=Greg Koch - Bored To Tears
TTITLE4=Joe Louis Walker - Ain't That Cold
TTITLE5=Paul Gilbert and Jimi Kidd - Freedom
TTITLE6=Stoney Curtis Band - Last Train To Chicago
TTITLE7=Jay Hooks - Cold Natured Thang
TTITLE8=Michael Katon - Rock 'n' Roll, Whiskey, Blood 'n Guts
TTITLE9=Jan James - Limousine Blues
TTITLE10=The Barrelhouse Brothers - It's No Secret
TTITLE11=Dave Hole - Keep Your Motor Running (live)
TTITLE12=Carl Verheyen - Revival Downs (live)
TTITLE13=Joe Bonamassa - Walk In My Shadows (live)
EXTD=
EXTT0=
EXTT1=
EXTT2=
EXTT3=
EXTT4=
EXTT5=
EXTT6=
EXTT7=
EXTT8=
EXTT9=
EXTT10=
EXTT11=
EXTT12=
EXTT13=
PLAYORDER=
